<svg id="Layer_1" data-name="Layer 1" xmlns="http://www.w3.org/2000/svg" viewBox="0 0 140.4 49.4"><defs><style>.cls-1{fill:#fff;}</style></defs><path class="cls-1" d="M24.49,40.42v18.2h-2.6V48.22h-7.8v10.4h-2.6V40.42h2.6v5.2h7.8v-5.2Z" transform="translate(-11.49 -40.42)"/><path class="cls-1" d="M40.09,48.22v5.2H29.69V56h-2.6v-7.8h2.6v2.6h7.8v-2.6Zm-10.4-2.6h7.8v2.6h-7.8Zm0,10.4h10.4v2.6H29.69Z" transform="translate(-11.49 -40.42)"/><path class="cls-1" d="M45.29,53.42V56h-2.6v-2.6Zm7.8-5.2h-7.8v-2.6h7.8Zm2.6,0v10.4H45.29V56h7.8v-2.6h-7.8v-2.6h7.8v-2.6Z" transform="translate(-11.49 -40.42)"/><path class="cls-1" d="M58.29,56V40.42h2.6V56Zm5.2,0v2.6h-2.6V56Z" transform="translate(-11.49 -40.42)"/><path class="cls-1" d="M68.69,56v-7.8h-2.6v-2.6h2.6v-5.2h2.6v5.2h2.6v2.6h-2.6V56Zm2.6,2.6V56h2.6v2.6Z" transform="translate(-11.49 -40.42)"/><path class="cls-1" d="M81.69,48.22v2.6h-2.6v7.8h-2.6V40.42h2.6v7.8Zm5.2,0h-5.2v-2.6h5.2Zm2.6,0v10.4h-2.6V48.22Z" transform="translate(-11.49 -40.42)"/><path class="cls-1" d="M94.69,48.22V56h-2.6v-7.8Zm7.8,0h-7.8v-2.6h7.8ZM94.69,56h7.8v2.6h-7.8Zm7.8-5.2v-2.6h2.6v2.6Zm2.6,5.2h-2.6v-2.6h2.6Z" transform="translate(-11.49 -40.42)"/><path class="cls-1" d="M110.29,53.42V56h-2.6v-2.6Zm7.8-5.2h-7.8v-2.6h7.8Zm2.6,0v10.4h-10.4V56h7.8v-2.6h-7.8v-2.6h7.8v-2.6Z" transform="translate(-11.49 -40.42)"/><path class="cls-1" d="M125.89,48.22h2.6v2.6h-2.6v7.8h-2.6v-13h2.6Zm7.8,0h-5.2v-2.6h5.2Zm2.6,0v2.6h-2.6v-2.6Z" transform="translate(-11.49 -40.42)"/><path class="cls-1" d="M151.89,48.22v5.2h-10.4V56h-2.6v-7.8h2.6v2.6h7.8v-2.6Zm-10.4-2.6h7.8v2.6h-7.8Zm0,10.4h10.4v2.6h-10.4Z" transform="translate(-11.49 -40.42)"/><path class="cls-1" d="M24.49,89.82h-13V71.62h2.6v15.6h10.4Z" transform="translate(-11.49 -40.42)"/><path class="cls-1" d="M29.69,84.62v2.6h-2.6v-2.6Zm7.8-5.2h-7.8v-2.6h7.8Zm2.6,0v10.4H29.69v-2.6h7.8v-2.6h-7.8V82h7.8v-2.6Z" transform="translate(-11.49 -40.42)"/><path class="cls-1" d="M45.29,79.42h2.6V82h-2.6v7.8h-2.6v-13h2.6Zm7.8,0h-5.2v-2.6h5.2Zm2.6,0V82h-2.6v-2.6Z" transform="translate(-11.49 -40.42)"/><path class="cls-1" d="M60.89,84.62v2.6h-2.6v-2.6Zm7.8-5.2h-7.8v-2.6h7.8Zm2.6,0v10.4H60.89v-2.6h7.8v-2.6h-7.8V82h7.8v-2.6Z" transform="translate(-11.49 -40.42)"/><path class="cls-1" d="M73.89,84.62v-7.8h2.6v7.8Zm5.2,0v2.6h-2.6v-2.6Zm0,2.6h2.6v2.6h-2.6Zm2.6-2.6h2.6v2.6h-2.6Zm5.2-7.8v7.8h-2.6v-7.8Z" transform="translate(-11.49 -40.42)"/><path class="cls-1" d="M102.49,79.42v5.2H92.09v2.6h-2.6v-7.8h2.6V82h7.8v-2.6Zm-10.4-2.6h7.8v2.6h-7.8Zm0,10.4h10.4v2.6H92.09Z" transform="translate(-11.49 -40.42)"/><path class="cls-1" d="M105.09,87.22V71.62h2.6v15.6Zm5.2,0v2.6h-2.6v-2.6Z" transform="translate(-11.49 -40.42)"/></svg>